<svg width="44" height="44" viewBox="0 0 44 44" fill="none" xmlns="http://www.w3.org/2000/svg">
<g id="majesticons:chevron-up-circle">
<path id="Vector" fill-rule="evenodd" clip-rule="evenodd" d="M5.5 22C5.5 24.1668 5.92678 26.3124 6.75599 28.3143C7.58519 30.3161 8.80057 32.1351 10.3327 33.6673C11.8649 35.1994 13.6839 36.4148 15.6857 37.244C17.6876 38.0732 19.8332 38.5 22 38.5C24.1668 38.5 26.3124 38.0732 28.3143 37.244C30.3161 36.4148 32.1351 35.1994 33.6673 33.6673C35.1994 32.1351 36.4148 30.3161 37.244 28.3143C38.0732 26.3124 38.5 24.1668 38.5 22C38.5 17.6239 36.7616 13.4271 33.6673 10.3327C30.5729 7.23839 26.3761 5.5 22 5.5C17.6239 5.5 13.4271 7.23839 10.3327 10.3327C7.23839 13.4271 5.5 17.6239 5.5 22ZM18.8705 17.7962C18.5365 17.4504 18.3518 16.9873 18.3559 16.5066C18.3601 16.0259 18.5529 15.5661 18.8928 15.2262C19.2327 14.8863 19.6926 14.6934 20.1733 14.6893C20.654 14.6851 21.1171 14.8699 21.4628 15.2038L26.9628 20.7038C27.3065 21.0476 27.4996 21.5139 27.4996 22C27.4996 22.4861 27.3065 22.9524 26.9628 23.2962L21.4628 28.7962C21.1171 29.1301 20.654 29.3149 20.1733 29.3107C19.6926 29.3066 19.2327 29.1137 18.8928 28.7738C18.5529 28.4339 18.3601 27.9741 18.3559 27.4934C18.3518 27.0127 18.5365 26.5496 18.8705 26.2038L23.0743 22L18.8705 17.7962Z" fill="#FFD700"/>
</g>
</svg>
